<?xml version="1.0" standalone="no"?>
<!DOCTYPE svg PUBLIC "-//W3C//DTD SVG 20010904//EN"
 "http://www.w3.org/TR/2001/REC-SVG-20010904/DTD/svg10.dtd">
<svg version="1.0" xmlns="http://www.w3.org/2000/svg"
 width="180.000000pt" height="180.000000pt" viewBox="0 0 180.000000 180.000000"
 preserveAspectRatio="xMidYMid meet">
<metadata>
Created by potrace 1.14, written by Peter Selinger 2001-2017
</metadata>
<g transform="translate(0.000000,180.000000) scale(0.100000,-0.100000)"
fill="#000000" stroke="none">
<path d="M0 900 l0 -900 900 0 900 0 0 900 0 900 -900 0 -900 0 0 -900z m1119
544 c149 -36 287 -137 345 -251 196 -389 -155 -760 -644 -679 -53 8 -115 22
-139 31 -24 8 -47 15 -52 15 -5 0 -9 -44 -9 -97 l0 -98 31 -18 c57 -32 33 -42
-101 -42 -134 0 -158 10 -101 42 l31 18 0 428 c0 412 -1 427 -18 418 -23 -12
-86 -81 -103 -113 -7 -12 -12 -35 -10 -49 1 -14 -4 -31 -12 -38 -12 -10 -22 0
-57 56 l-43 67 52 48 c142 130 319 224 496 263 85 19 255 18 334 -1z"/>
<path d="M841 1379 c-64 -12 -140 -38 -183 -62 l-38 -21 0 -323 0 -322 30 -16
c16 -8 58 -22 92 -29 221 -50 395 -13 503 106 54 60 82 119 95 202 47 296
-198 524 -499 465z"/>
</g>
</svg>
